<svg width="61" height="60" viewBox="0 0 61 60" fill="none" xmlns="http://www.w3.org/2000/svg">
<path d="M45.5002 7.31341C45.2012 6.92705 44.6403 6.85263 44.2476 7.14689C43.8549 7.44103 43.7792 7.99275 44.0784 8.379C46.3553 11.3187 47.5587 14.8316 47.5587 18.5376C47.5587 22.4353 46.1696 26.2326 43.647 29.2298C43.2401 29.7132 42.8088 30.2294 42.4012 30.7567L39.8456 34.063C38.4408 35.8804 37.4193 37.9068 36.8032 40.0961H34.6788V39.2966C34.6788 38.4945 34.2772 37.7447 33.6046 37.2914C33.4184 37.1659 33.3072 36.9584 33.3072 36.7364V35.0136H34.5151C36.1669 35.0136 37.5108 33.6917 37.5108 32.067C37.5108 30.4424 36.167 29.1206 34.5151 29.1206C32.8633 29.1206 31.5194 30.4424 31.5194 32.067V33.2553H29.48V32.067C29.48 30.4423 28.1362 29.1206 26.4843 29.1206C24.8325 29.1206 23.4886 30.4425 23.4886 32.0671C23.4886 33.6919 24.8325 35.0136 26.4843 35.0136H27.6923V36.7364C27.6923 36.9584 27.5812 37.1659 27.3951 37.2914C26.7223 37.7446 26.3207 38.4945 26.3207 39.2966V40.0961H24.1962C23.5803 37.9068 22.5586 35.8804 21.1539 34.063L18.551 30.6956C18.1535 30.1812 17.7358 29.6833 17.3755 29.2569C14.8198 26.2331 13.4225 22.398 13.441 18.4582C13.4621 13.9709 15.2792 9.75475 18.5577 6.58627C21.8383 3.41564 26.1594 1.70576 30.7257 1.7599C34.6405 1.80982 38.3064 3.12748 41.327 5.57072C41.7083 5.87927 42.2715 5.82514 42.5851 5.45001C42.8987 5.07501 42.8437 4.52096 42.4624 4.21252C39.1723 1.55142 35.0123 0.0558769 30.7487 0.00173625C25.7053 -0.0656465 20.928 1.83033 17.3047 5.33201C13.6836 8.83158 11.6765 13.4904 11.6533 18.4501C11.6328 22.8026 13.1767 27.0397 16.0006 30.3809C16.3489 30.7931 16.752 31.2736 17.1279 31.7598L19.7307 35.1271C20.9043 36.6454 21.7799 38.3261 22.3441 40.1348C21.6586 40.2881 21.1451 40.8911 21.1451 41.611V45.0156C21.1451 45.8188 21.7846 46.4765 22.589 46.5258V47.6808C22.589 48.1665 22.9892 48.56 23.4828 48.56C23.9764 48.56 24.3766 48.1665 24.3766 47.6808V46.5306H36.6224V51.5765L34.7384 53.9746H26.2605L24.374 51.5734C24.3394 51.1188 23.9537 50.7605 23.4827 50.7605C22.9891 50.7605 22.5889 51.154 22.5889 51.6396C22.5889 51.9856 22.7073 52.3272 22.9228 52.6015L24.9027 55.1216C25.1508 55.4374 25.5169 55.6459 25.9135 55.7099C26.0343 58.0954 28.045 60 30.4999 60C32.9547 60 34.9654 58.0956 35.0858 55.7099C35.4824 55.6459 35.8486 55.4374 36.0968 55.1215L38.0768 52.6012C38.2919 52.3271 38.4104 51.9856 38.4104 51.6395V46.5256C39.2149 46.4765 39.8544 45.8188 39.8544 45.0154V41.6109C39.8544 40.891 39.3408 40.2879 38.6554 40.1347C39.2197 38.3261 40.0953 36.6453 41.2688 35.127L43.8244 31.8207C44.2113 31.3201 44.6292 30.8201 45.0241 30.3507C47.8115 27.0388 49.3464 22.8434 49.3464 18.5374C49.3464 14.4433 48.0165 10.562 45.5002 7.31341ZM33.3073 32.0671C33.3073 31.412 33.8491 30.879 34.5152 30.879C35.1814 30.879 35.7232 31.412 35.7232 32.0673C35.7232 32.7224 35.1814 33.2554 34.5152 33.2554H33.3073V32.0671ZM30.4999 58.2417C29.0391 58.2417 27.8355 57.1373 27.7069 55.7328H33.2926C33.1642 57.1373 31.9607 58.2417 30.4999 58.2417ZM28.1085 39.2966C28.1085 39.0747 28.2195 38.8673 28.4057 38.7418C29.0784 38.2883 29.48 37.5386 29.48 36.7364V35.0136H31.5194V36.7364C31.5194 37.5386 31.9211 38.2882 32.5939 38.7418C32.78 38.8673 32.8911 39.0747 32.8911 39.2966V40.0961H28.1083V39.2966H28.1085ZM26.4845 33.2554C25.8183 33.2554 25.2765 32.7225 25.2765 32.0671C25.2765 31.412 25.8183 30.879 26.4845 30.879C27.1506 30.879 27.6924 31.412 27.6924 32.0671V33.2554H26.4845ZM38.0668 44.7722H22.933V41.8545H38.0668V44.7722Z" fill="white"/>
</svg>
