<svg width="77" height="73" viewBox="0 0 77 73" fill="none" xmlns="http://www.w3.org/2000/svg">
<path d="M31.1038 26.1223C31.1029 26.6756 31.5767 27.1247 32.1602 27.1238C32.7437 27.1247 33.2166 26.6763 33.2166 26.1223C33.2166 25.57 32.7428 25.1208 32.1602 25.1208C31.5758 25.1208 31.1029 25.5691 31.1038 26.1223Z" fill="white"/>
<path d="M32.2388 29.1282C31.6568 29.1702 31.221 29.6515 31.2653 30.2032C31.4022 31.9038 31.702 35.0733 32.1711 37.1967C32.2906 37.7383 32.8507 38.0856 33.4219 37.9719C33.9953 37.8579 34.3586 37.3257 34.2396 36.7861C33.7783 34.6989 33.4795 31.3808 33.3729 30.051C33.3285 29.4993 32.8206 29.0863 32.2388 29.1282Z" fill="white"/>
<path d="M33.2166 20.1115C33.2157 22.8796 35.5781 25.1209 38.4992 25.1202C41.4202 25.1209 43.7834 22.881 43.7823 20.1115C43.7823 17.3435 41.4199 15.1033 38.4997 15.1033C35.5801 15.1033 33.2166 17.3429 33.2166 20.1115ZM41.6692 20.1117C41.6689 20.112 41.6689 20.112 41.6689 20.112C41.6695 21.773 40.2534 23.1171 38.4992 23.1165C36.7471 23.1171 35.3294 21.7741 35.3302 20.1117C35.3302 18.4507 36.7474 17.1071 38.4997 17.1069C40.2511 17.1069 41.6689 18.4504 41.6692 20.1117Z" fill="white"/>
<path d="M39.557 71.3495L39.5568 62.4931C39.557 61.9399 39.0839 61.4912 38.5 61.4912C37.9166 61.4915 37.4437 61.9399 37.4434 62.4931V71.3493C37.4434 71.9027 37.9166 72.3513 38.5003 72.3513C39.0839 72.351 39.5568 71.9027 39.557 71.3495Z" fill="white"/>
<path d="M47.0288 64.2652L47.0284 55.4089C47.0284 54.8559 46.5553 54.4073 45.9718 54.407C45.3882 54.4073 44.9153 54.8556 44.9148 55.4091V64.2652C44.9151 64.8185 45.3882 65.2671 45.9718 65.2673C46.5555 65.2668 47.0284 64.8185 47.0288 64.2652Z" fill="white"/>
<path d="M31.0286 65.2673C31.6121 65.267 32.085 64.8186 32.0853 64.2654V55.4092C32.0853 54.8558 31.6121 54.4072 31.0286 54.4075C30.4447 54.4075 29.9719 54.8558 29.9719 55.4092V64.2654C29.9716 64.8186 30.4447 65.2673 31.0286 65.2673Z" fill="white"/>
<path d="M39.2867 0.976324C39.0865 0.763789 38.7999 0.642577 38.4992 0.642578C38.1985 0.642578 37.911 0.763512 37.7117 0.976324C34.126 4.7776 26.8757 15.1016 26.8757 26.1235C26.8757 28.4902 27.023 30.8693 27.3106 33.2064C21.7338 36.7561 18.4219 42.6236 18.4221 49.0126C18.4221 50.8075 18.686 52.5858 19.2065 54.2991C19.4999 55.2641 20.9456 55.2594 21.2373 54.2994C22.5753 49.9036 25.7191 46.2231 29.9448 44.0529C30.312 44.9467 30.7034 45.7623 31.1143 46.4846C31.575 47.2976 32.4282 47.8437 33.4066 47.9781C33.3655 48.3354 33.3442 48.6977 33.3442 49.063C33.3442 52.7098 37.6404 57.5245 37.8234 57.7279C38.2245 58.1735 38.94 58.1981 39.3743 57.7863C39.3939 57.7677 39.4128 57.7481 39.4309 57.7282C39.6137 57.525 43.9114 52.7101 43.9116 49.063C43.9116 48.6827 43.8886 48.3055 43.8442 47.9341C44.7304 47.7437 45.4698 47.2166 45.8841 46.4863C46.2953 45.7632 46.6867 44.947 47.0543 44.0529C51.2796 46.2228 54.4237 49.9036 55.7617 54.2994C56.0577 55.2724 57.5032 55.2491 57.7922 54.2988C58.3129 52.5858 58.5768 50.8075 58.5768 49.0126C58.5768 42.6238 55.2646 36.7561 49.6881 33.2067C49.9756 30.8691 50.123 28.49 50.123 26.1233C50.123 20.6975 48.4519 15.0025 45.1566 9.19573C43.5567 6.28417 40.903 2.68961 39.2867 0.976324ZM20.5945 50.4052C20.5551 49.9433 20.5352 49.4784 20.5356 49.0126C20.5352 43.632 23.1624 38.6651 27.6316 35.4513C28.0298 37.8689 28.5757 40.1432 29.2383 42.1395C25.4929 43.9862 22.4814 46.885 20.5945 50.4052ZM41.7983 49.063C41.7983 51.0112 39.9289 53.8107 38.6267 55.4648C37.3252 53.8123 35.4575 51.0156 35.4575 49.063C35.4575 48.707 35.4827 48.3557 35.5309 48.0111H41.7244C41.7729 48.3554 41.798 48.7067 41.7983 49.063ZM44.0232 45.5362C43.8605 45.8226 43.5062 46.0075 43.1203 46.0075C40.9859 46.0075 34.8997 46.0075 33.8787 46.0075C33.4925 46.0077 33.1382 45.8224 32.9749 45.5348C32.585 44.8496 32.2119 44.067 31.8616 43.2003C33.968 42.4038 36.1958 42.0003 38.4989 41.9997C40.8026 42.0003 43.0304 42.4038 45.1367 43.2003C44.7865 44.067 44.4135 44.8502 44.0232 45.5362ZM56.4634 49.0126C56.4634 49.4786 56.4436 49.943 56.4039 50.4052C54.5173 46.8847 51.5058 43.9859 47.7604 42.1392C48.4227 40.1432 48.9685 37.8689 49.3668 35.4513C53.8366 38.6651 56.4631 43.632 56.4634 49.0126ZM48.0097 26.1233C48.0094 31.0113 47.3388 36.6128 45.8218 41.3032C43.4957 40.4367 41.0379 39.9968 38.4989 39.9962C35.9602 39.997 33.5027 40.4367 31.1769 41.3035C29.6599 36.613 28.989 31.0113 28.989 26.1235C28.989 21.1916 30.4777 15.9922 33.4152 10.6602H43.5832C46.521 15.9919 48.0094 21.1916 48.0097 26.1233ZM42.4137 8.65637L34.5848 8.65636C36.1269 6.15991 37.6229 4.25789 38.4992 3.21347C39.3755 4.25789 40.8718 6.15964 42.4137 8.65637Z" fill="white"/>
</svg>
